<?xml version="1.0" encoding="utf-8"?>
<!-- Generator: Adobe Illustrator 21.0.2, SVG Export Plug-In . SVG Version: 6.00 Build 0)  -->
<svg version="1.1" id="Capa_6" xmlns="http://www.w3.org/2000/svg" xmlns:xlink="http://www.w3.org/1999/xlink" x="0px" y="0px"
	 viewBox="0 0 453 132" style="enable-background:new 0 0 453 132;" xml:space="preserve">
<style type="text/css">
	.st0{fill:#5D007F;}
	.st1{fill:#BEFF6A;}
	.st2{fill:#FFFFFF;}
</style>
<g>
	<g>
		<path class="st0" d="M169.1,68.5c1.3-0.8,2.5-1.4,3.5-1.9c1-0.4,1.9-0.6,2.5-0.6c1.6,0,2.8,0.6,3.5,1.8c0.7,1.2,1,3.3,1,6.5
			c0,4-0.3,7.6-1,10.6c-0.6,3.1-1.5,5.1-2.5,6.3c-1.4,1.5-3.5,2.6-6.3,3.4c-2.8,0.8-6.2,1.1-10.3,1.1c-9.9,0-17.9-2.5-23.9-7.4
			c-6-5-9-11.5-9-19.6c0-4.1,0.8-7.9,2.3-11.5c1.5-3.6,3.8-6.9,6.9-10c3.5-3.5,7.6-6.3,12.4-8.2c4.8-1.9,9.8-2.8,15.2-2.8
			c2.3,0,4.1,0.3,5.1,0.9c1.1,0.6,1.6,1.6,1.6,2.9c0,0.6-0.1,1.3-0.4,2.1c-0.2,0.8-0.6,1.7-1.1,2.7c-1-0.4-2.1-0.7-3.3-0.9
			c-1.2-0.2-2.5-0.3-3.9-0.3c-7.7,0-14.1,2.2-19.1,6.7c-5,4.5-7.5,10.2-7.5,17.2c0,6.9,2.2,12.1,6.5,15.9c4.3,3.7,10.4,5.6,18.4,5.6
			c2,0,3.9-0.2,5.8-0.5c1.9-0.3,3.7-0.8,5.5-1.5c0.2-1.2,0.3-2.4,0.4-3.7s0.1-2.7,0.1-4.1c0-2.5-0.2-4.6-0.7-6.4
			S170,69.6,169.1,68.5z"/>
		<path class="st0" d="M210.2,95.8c-4,0-7.8-0.7-11.3-2c-3.5-1.3-6.6-3.3-9.3-5.8c-2.9-2.7-5-5.9-6.5-9.4c-1.4-3.6-2.2-7.6-2.2-12
			c0-4.3,0.8-8.4,2.3-12.1c1.6-3.7,3.8-7,6.9-9.8c2.9-2.8,6.4-4.9,10.3-6.3c3.9-1.4,8.2-2.2,12.8-2.2c9,0,16.2,2.6,21.6,7.7
			c5.4,5.1,8.1,11.9,8.1,20.3c0,4.2-0.7,8.1-2.2,11.8c-1.5,3.7-3.6,7-6.4,9.9c-3.2,3.3-6.8,5.9-10.8,7.5
			C219.4,95,215,95.8,210.2,95.8z M234.6,64.6c0-6.7-2-12.1-6.1-16.1c-4-4-9.4-6.1-16.2-6.1c-7,0-12.6,2.1-16.8,6.4
			c-4.2,4.3-6.3,10-6.3,17.1c0,6.9,2,12.5,6.1,16.8c4.1,4.3,9.4,6.5,15.9,6.5c6.9,0,12.5-2.3,16.9-6.9
			C232.4,77.8,234.6,71.9,234.6,64.6z"/>
		<path class="st0" d="M270.5,65.8c3.7,1,6.4,2.5,8.3,4.5c1.9,2,2.8,4.5,2.8,7.4c0,4.8-2.3,8.9-6.9,12.2c-4.6,3.3-10.4,5-17.3,5
			c-3.9,0-6.5-0.5-7.7-1.4c-1.3-0.9-1.9-2.7-1.9-5.4c0-0.6,0.1-3.8,0.4-9.6c0.3-5.8,0.4-11.2,0.4-16.2c0-7.2-0.2-12.7-0.6-16.5
			c-0.4-3.8-1-6.6-1.8-8.5c3.7,0,7.6-0.1,11.6-0.2c1-0.1,1.6-0.1,1.8-0.1c6.7,0,12.1,1.4,16,4.2c3.9,2.8,5.9,6.5,5.9,11.1
			c0,3-0.9,5.6-2.8,7.9C276.9,62.5,274.1,64.3,270.5,65.8z M255.5,43.2c-0.1,2.2-0.1,4.7-0.2,7.6c0,2.9-0.1,7.1-0.1,12.6
			c0.7,0.1,1.5,0.2,2.2,0.2c0.7,0,1.4,0.1,2,0.1c4.7,0,8.3-0.9,10.9-2.7c2.6-1.8,3.8-4.4,3.8-7.7c0-3.3-1.2-5.9-3.6-7.6
			C268,43.8,264.5,43,260,43c-0.7,0-1.4,0-2.2,0.1C257.1,43.1,256.3,43.1,255.5,43.2z M255.3,68.8v5.6c0,1.9,0,3.9,0,6
			s0.1,4.7,0.1,7.8c0.9,0.1,1.8,0.2,2.6,0.3c0.9,0.1,1.7,0.1,2.5,0.1c4.1,0,7.3-0.9,9.8-2.8c2.5-1.9,3.7-4.4,3.7-7.4
			c0-3.2-1.3-5.6-3.8-7.2c-2.6-1.6-6.3-2.5-11.3-2.5c-0.4,0-0.9,0-1.4,0C257.2,68.7,256.4,68.7,255.3,68.8z"/>
		<path class="st0" d="M296,88.1c1.1,0.1,2.2,0.2,3.3,0.2c1.1,0.1,2.2,0.1,3.3,0.1c3.8,0,6.8-0.2,9-0.5c2.2-0.3,4-0.9,5.5-1.7
			c0.5,0.9,0.9,1.8,1.2,2.6c0.3,0.8,0.4,1.7,0.4,2.5c0,1.3-0.5,2.2-1.4,2.7c-0.9,0.5-2.7,0.8-5.2,0.8c-0.9,0-2.6,0-5.1-0.1
			c-2.5-0.1-4.6-0.1-6.2-0.1c-2.3,0-4.5,0.1-6.8,0.2c-2.3,0.1-3.4,0.2-3.5,0.2c-0.9,0-1.5-0.2-1.9-0.6c-0.4-0.4-0.6-1.2-0.6-2.2
			c0-0.5,0.1-1.9,0.2-4.1c0.5-8.4,0.7-16.4,0.7-24c0-7.1-0.2-12.6-0.6-16.4s-1-6.5-2-8.2c1.2-0.7,2.4-1.2,3.5-1.5
			c1.1-0.3,2.2-0.5,3.2-0.5c1.5,0,2.5,0.4,3,1.1c0.5,0.8,0.8,2.3,0.8,4.7c0,0.7-0.1,2.5-0.2,5.5c-0.5,11.4-0.7,22.2-0.7,32.3V88.1z"
			/>
		<path class="st0" d="M333.3,92.7c-1.2,0.7-2.4,1.2-3.6,1.5c-1.1,0.3-2.2,0.5-3.3,0.5c-1.4,0-2.4-0.4-2.9-1.2
			c-0.5-0.8-0.8-2.3-0.8-4.5c0-1.1,0.1-4.7,0.4-10.8c0.2-6.1,0.4-11.6,0.4-16.6c0-6.4-0.2-11.3-0.6-14.8c-0.4-3.5-1-6-1.9-7.5
			c1.4-0.7,2.6-1.2,3.7-1.6c1.1-0.3,2.1-0.5,3.1-0.5c1.4,0,2.4,0.4,2.9,1.2c0.6,0.8,0.8,2.2,0.8,4.3c0,0.3-0.1,3.6-0.4,9.9
			c-0.3,6.3-0.4,12.4-0.4,18.4c0,6.1,0.2,10.8,0.6,14.1C331.7,88.5,332.4,91,333.3,92.7z"/>
		<path class="st0" d="M386.9,95.2c-4.9-4.8-11.6-12.2-20.2-22.2c-8.6-10-15-17.2-19.3-21.7c0,10,0.2,20.5,0.6,31.6
			c0.1,2.9,0.2,4.7,0.2,5.4c0,2.6-0.3,4.4-0.8,5.2c-0.6,0.8-1.6,1.2-3.1,1.2c-1,0-2-0.2-3.1-0.5c-1.1-0.3-2.1-0.8-3.2-1.5
			c1.4-2.4,2.4-6,3-10.5c0.6-4.6,0.9-12.7,0.9-24.3c0-5.4-0.3-9.3-1-11.6c-0.7-2.3-1.9-3.9-3.6-4.8c1.2-1.4,2.2-2.4,3.1-3
			c0.9-0.6,1.8-0.9,2.7-0.9c0.8,0,1.7,0.3,2.5,0.8c0.8,0.5,1.8,1.5,3,2.9c0.2,0.2,0.7,0.8,1.5,1.8c10.2,12.1,21.6,25.2,34.3,39.3
			c0.1-4,0.1-7.5,0.2-10.5c0-3,0.1-5.6,0.1-7.8c0-7.1-0.3-12.5-0.8-16.2c-0.6-3.7-1.5-6.7-2.8-8.9c1.2-0.6,2.3-1.1,3.2-1.4
			c1-0.3,1.9-0.5,2.7-0.5c1.5,0,2.6,0.4,3.1,1.3c0.6,0.9,0.9,2.8,0.9,5.8c0,1.8-0.2,6.1-0.5,12.9s-0.5,12.9-0.5,18
			c0,3.3,0.1,6.5,0.2,9.4c0.2,2.9,0.4,5.7,0.7,8.2L386.9,95.2z"/>
	</g>
	<g>
		<path class="st0" d="M398.8,38.3h3.3c1.4,0,2.6,0.2,3.5,0.6c0.9,0.4,1.6,1.1,2.1,2.1c0.5,1,0.8,2.4,0.8,4.2c0,1.2-0.2,2.3-0.5,3.3
			c-0.3,1-0.7,1.7-1.3,2.3c-0.5,0.6-1.1,0.9-1.8,1.1c-0.7,0.2-1.5,0.3-2.5,0.3h-3.6V38.3z M401.9,40.6v9.1h0.5
			c0.7,0,1.2-0.1,1.6-0.4c0.4-0.3,0.7-0.7,0.9-1.4c0.2-0.7,0.3-1.6,0.3-2.9c0-1.2-0.1-2.1-0.4-2.7s-0.6-1.1-1-1.3
			c-0.4-0.2-0.9-0.3-1.6-0.3H401.9z"/>
		<path class="st0" d="M410.5,38.3h4.7c1.1,0,1.9,0.1,2.5,0.3c0.6,0.2,1,0.6,1.4,1.2c0.4,0.6,0.6,1.3,0.6,2.2c0,1.5-0.7,2.5-2,3
			c1.6,0.6,2.3,1.7,2.3,3.4c0,0.9-0.2,1.7-0.6,2.3c-0.4,0.6-0.9,1-1.6,1.2c-0.6,0.2-1.5,0.3-2.7,0.3h-4.7V38.3z M413.4,43.8h1
			c1,0,1.6-0.2,1.8-0.5c0.3-0.4,0.4-0.8,0.4-1.2c0-0.4-0.1-0.8-0.4-1.1c-0.3-0.3-0.8-0.5-1.6-0.5h-1.2V43.8z M413.4,49.7h1.5
			c1.4,0,2.1-0.6,2.1-1.8c0-0.7-0.2-1.1-0.5-1.4c-0.3-0.3-0.9-0.4-1.6-0.4h-1.5V49.7z"/>
	</g>
	<g>
		<path class="st0" d="M121.5,39.4l-0.2-3l-16.5,17.1l1.2-10.1l0-0.1l0-0.1c-0.1-7.4-10.9-9.2-11.4-9.2c-20.2-3.7-34.2-0.3-35.4,0
			c-10,1.8-11.6,7-11.8,8.1c-0.1,0.3-0.1,0.6-0.1,1l0.4,8.3L33,36.2l0,3.3c0,1.2,0.5,27.6,16,38.2l0.6,9.7l0,0.1
			c0.1,0.5,2,11.2,26.4,12.2c0,0,0,0,0,0c0.9,0,20.3-0.1,25.5-11.1l0.1-0.2l0.6-8.7l0.5-0.4C123.2,69,121.6,40.6,121.5,39.4z
			 M59.9,36.7l0.1,0c0.1,0,14.3-3.6,34.3,0c0.1,0,7.1,1.2,8.8,5.1c-1.4,0.6-2.8,1.1-4.3,1.6l-1.6-4l-5.3,5.9c-3.1,0.6-6,1-8.5,1.2
			L69,46.3c-2.7-0.3-5.9-0.7-9.1-1.4l-0.6-0.2c-1.3-1.7-2.4-3.1-2.4-3.1L56.1,44c-2.1-0.6-4-1.3-5.7-2.1C51,40.7,53,37.9,59.9,36.7z
			 M50.2,44.8c1.5,0.7,3.2,1.2,5,1.8l-1.3,3.8l3.7-4l7.9,6.3c-0.4-0.4-2-2.4-3.7-4.6c7.6,1.4,14.3,1.3,14.5,1.3c0.1,0,0.3,0,0.8,0
			c1.7,0,6.2-0.1,11.8-1l-7.5,8.4l11-9c0,0,0.1,0,0.1,0l0,0l3.6-2.9l1.9,4.7l2.8-1.1l-1.1-2.6c1.2-0.4,2.3-0.8,3.5-1.3L101.5,59
			l0,0.1c0,0.2-0.2,0.4-0.4,0.7c-1.1,1.1-3.6,2.1-6.9,2.9c1.5-2.1,2.6-5.4,2.6-10.6V49L78.2,65.3l0.1,10.3l0.1,0l2.2-8.4
			c7.3-0.1,16-1.5,20.4-4.1l-1.2,11.2l0,0.1c0,1.6-3.2,4.2-12.2,4.8c-0.7,0-2.4,0-3.9-0.4c0.8-1.2,1.4-3-0.5-4.3
			c-3.1-2.2-3.8,0.5-3.8,0.5s1.6-1.4,2.3,0.3c0.5,1.3-0.7,2.8-1.2,3.3l-0.1,0.2C79.1,81,77.7,82,76.2,82c0,0,0,0,0,0
			c-1.9,0-3.7-1.8-4.5-2.9l-0.1-0.1c0,0-0.1-0.1-0.2-0.2c0,0-0.1-0.1-0.1-0.1c-0.5-0.6-1.7-2-1.2-3.3c0.6-1.6,2.3-0.3,2.3-0.3
			s-0.7-2.7-3.8-0.5c-2,1.4-1.2,3.4-0.3,4.6c-0.6,0.3-1.3,0.4-2.1,0.2l-0.1,0c-11.1-1.2-14.9-3.9-14.9-4.9L50.9,63
			c2.6,1.6,6.6,2.5,10.2,3.1c0.7,0.1,1.3,0.2,1.9,0.3c2.6,0.4,4,0.7,8.1,0.7l2.2,7.7l0.2,0l0.1-9.6l-17-15l-0.4,2.7
			c-0.7,4.7-0.2,7.7,0.8,9.6c-5-1.3-6.2-2.8-6.2-3.4l-0.2-4.5l0-0.5L50.2,44.8z M88.5,63.9c-1.7,0.2-3.4,0.4-5.2,0.5l10.6-8.8
			C93.1,61.9,90.2,63.5,88.5,63.9z M62.9,63.7c-1.2-0.4-4.6-0.3-4.3-7.6l10,8.4c-2.1-0.1-3.2-0.3-5.1-0.6
			C63.3,63.8,63.1,63.7,62.9,63.7z M35.9,43L48,55.3l0.2,3.8c0,0,0,0.1,0,0.1l-7.6-7.1c0,0,1.9,12.8,7.8,17.1l0.1,4.6
			C39,65.7,36.6,50,35.9,43z M76.1,97c-21.2-0.8-23.6-9.3-23.8-9.9l-0.5-8l0.2-0.5c2.6,1.3,6.2,2.2,9.3,2.7
			c-1.4,3.2,7.2,13.2,7.2,13.2s-1.2-2.3-3.5-7.5c-1.4-3-0.3-4.4,0.8-5.1c0.4,0.1,0.7,0.1,1,0.1c1.1,0,2.1-0.3,3-0.8
			c1.2,1.4,3.4,3.4,6.2,3.4c0,0,0,0,0.1,0c2.2,0,4.2-1.2,5.9-3.7c1.1,0.4,2.3,0.6,3.3,0.7c1.3,0.6,2.8,2,1.2,5.3
			c-2.3,5.2-3.5,7.5-3.5,7.5s8.8-10,6-12.8c4.6-0.4,8.1-1.4,10.4-2.8l-0.6,8.8C94.3,96.9,76.2,97,76.1,97z M102.5,76.5l0.1-1.4l0,0
			c0-0.2,0.1-0.4,0.1-0.6l0.2-1.5c9.2-5.4,11.9-21.5,11.9-21.5L104,61.6l0.2-1.6c0,0,0.1-0.5,0.1-0.8l0.2-1.5l0.4-0.3l14.1-14.6
			C118.6,50.2,116.6,68.6,102.5,76.5z"/>
		<polygon class="st0" points="68.1,85.8 76.2,92.3 82.8,86.4 76.3,88.6 		"/>
		<path class="st0" d="M65.6,52.7L65.6,52.7C65.6,52.7,65.6,52.7,65.6,52.7z"/>
	</g>
</g>
</svg>
